solid ascii
  facet normal -9.973634e-001 -7.256935e-002 -0.000000e+000
    outer loop
      vertex   -4.516674e-001 1.270000e+000 2.540000e+000
      vertex   -4.516674e-001 1.270000e+000 0.000000e+000
      vertex   -4.170149e-001 7.937500e-001 2.540000e+000
    endloop
  endfacet
  facet normal -9.973634e-001 -7.256935e-002 0.000000e+000
    outer loop
      vertex   -4.170149e-001 7.937500e-001 2.540000e+000
      vertex   -4.516674e-001 1.270000e+000 0.000000e+000
      vertex   -4.170149e-001 7.937500e-001 0.000000e+000
    endloop
  endfacet
  facet normal -0.000000e+000 1.000000e+000 0.000000e+000
    outer loop
      vertex   -4.516674e-001 1.270000e+000 2.540000e+000
      vertex   6.350000e-001 1.270000e+000 2.540000e+000
      vertex   -4.516674e-001 1.270000e+000 0.000000e+000
    endloop
  endfacet
  facet normal -0.000000e+000 1.000000e+000 0.000000e+000
    outer loop
      vertex   -4.516674e-001 1.270000e+000 0.000000e+000
      vertex   6.350000e-001 1.270000e+000 2.540000e+000
      vertex   6.350000e-001 1.270000e+000 0.000000e+000
    endloop
  endfacet
  facet normal 0.000000e+000 -0.000000e+000 -1.000000e+000
    outer loop
      vertex   -4.516674e-001 1.270000e+000 0.000000e+000
      vertex   6.350000e-001 1.270000e+000 0.000000e+000
      vertex   -4.170149e-001 7.937500e-001 0.000000e+000
    endloop
  endfacet
  facet normal 0.000000e+000 0.000000e+000 -1.000000e+000
    outer loop
      vertex   -4.170149e-001 7.937500e-001 0.000000e+000
      vertex   6.350000e-001 1.270000e+000 0.000000e+000
      vertex   6.350000e-001 7.937500e-001 0.000000e+000
    endloop
  endfacet
  facet normal 0.000000e+000 -1.000000e+000 0.000000e+000
    outer loop
      vertex   -4.170149e-001 7.937500e-001 0.000000e+000
      vertex   6.350000e-001 7.937500e-001 0.000000e+000
      vertex   -4.170149e-001 7.937500e-001 2.540000e+000
    endloop
  endfacet
  facet normal 0.000000e+000 -1.000000e+000 0.000000e+000
    outer loop
      vertex   -4.170149e-001 7.937500e-001 2.540000e+000
      vertex   6.350000e-001 7.937500e-001 0.000000e+000
      vertex   6.350000e-001 7.937500e-001 2.540000e+000
    endloop
  endfacet
  facet normal -0.000000e+000 0.000000e+000 1.000000e+000
    outer loop
      vertex   -4.516674e-001 1.270000e+000 2.540000e+000
      vertex   -4.170149e-001 7.937500e-001 2.540000e+000
      vertex   6.350000e-001 1.270000e+000 2.540000e+000
    endloop
  endfacet
  facet normal -0.000000e+000 0.000000e+000 1.000000e+000
    outer loop
      vertex   6.350000e-001 1.270000e+000 2.540000e+000
      vertex   -4.170149e-001 7.937500e-001 2.540000e+000
      vertex   6.350000e-001 7.937500e-001 2.540000e+000
    endloop
  endfacet
  facet normal 1.000000e+000 -0.000000e+000 8.741914e-017
    outer loop
      vertex   6.350000e-001 7.937500e-001 0.000000e+000
      vertex   6.350000e-001 1.270000e+000 0.000000e+000
      vertex   6.350000e-001 7.937500e-001 2.540000e+000
    endloop
  endfacet
  facet normal 1.000000e+000 0.000000e+000 8.741914e-017
    outer loop
      vertex   6.350000e-001 7.937500e-001 2.540000e+000
      vertex   6.350000e-001 1.270000e+000 0.000000e+000
      vertex   6.350000e-001 1.270000e+000 2.540000e+000
    endloop
  endfacet
  facet normal -9.973634e-001 -7.256935e-002 0.000000e+000
    outer loop
      vertex   -1.513456e-001 -2.857500e+000 0.000000e+000
      vertex   -1.513456e-001 -2.857500e+000 2.540000e+000
      vertex   -2.322015e-001 -1.746250e+000 0.000000e+000
    endloop
  endfacet
  facet normal -9.973634e-001 -7.256935e-002 0.000000e+000
    outer loop
      vertex   -2.322015e-001 -1.746250e+000 0.000000e+000
      vertex   -1.513456e-001 -2.857500e+000 2.540000e+000
      vertex   -2.322015e-001 -1.746250e+000 2.540000e+000
    endloop
  endfacet
  facet normal 0.000000e+000 -1.000000e+000 0.000000e+000
    outer loop
      vertex   -1.513456e-001 -2.857500e+000 0.000000e+000
      vertex   1.502759e+000 -2.857500e+000 0.000000e+000
      vertex   -1.513456e-001 -2.857500e+000 2.540000e+000
    endloop
  endfacet
  facet normal 2.684771e-016 -1.000000e+000 1.748383e-016
    outer loop
      vertex   -1.513456e-001 -2.857500e+000 2.540000e+000
      vertex   1.502759e+000 -2.857500e+000 0.000000e+000
      vertex   1.502759e+000 -2.857500e+000 2.540000e+000
    endloop
  endfacet
  facet normal -0.000000e+000 0.000000e+000 1.000000e+000
    outer loop
      vertex   -2.322015e-001 -1.746250e+000 2.540000e+000
      vertex   -1.513456e-001 -2.857500e+000 2.540000e+000
      vertex   1.502759e+000 -1.746250e+000 2.540000e+000
    endloop
  endfacet
  facet normal -0.000000e+000 0.000000e+000 1.000000e+000
    outer loop
      vertex   1.502759e+000 -1.746250e+000 2.540000e+000
      vertex   -1.513456e-001 -2.857500e+000 2.540000e+000
      vertex   1.502759e+000 -2.857500e+000 2.540000e+000
    endloop
  endfacet
  facet normal 1.279825e-016 1.000000e+000 0.000000e+000
    outer loop
      vertex   -2.322015e-001 -1.746250e+000 2.540000e+000
      vertex   1.502759e+000 -1.746250e+000 2.540000e+000
      vertex   -2.322015e-001 -1.746250e+000 0.000000e+000
    endloop
  endfacet
  facet normal 0.000000e+000 1.000000e+000 8.741914e-017
    outer loop
      vertex   -2.322015e-001 -1.746250e+000 0.000000e+000
      vertex   1.502759e+000 -1.746250e+000 2.540000e+000
      vertex   1.502759e+000 -1.746250e+000 0.000000e+000
    endloop
  endfacet
  facet normal 0.000000e+000 -0.000000e+000 -1.000000e+000
    outer loop
      vertex   -2.322015e-001 -1.746250e+000 0.000000e+000
      vertex   1.502759e+000 -1.746250e+000 0.000000e+000
      vertex   -1.513456e-001 -2.857500e+000 0.000000e+000
    endloop
  endfacet
  facet normal 0.000000e+000 0.000000e+000 -1.000000e+000
    outer loop
      vertex   -1.513456e-001 -2.857500e+000 0.000000e+000
      vertex   1.502759e+000 -1.746250e+000 0.000000e+000
      vertex   1.502759e+000 -2.857500e+000 0.000000e+000
    endloop
  endfacet
  facet normal 1.000000e+000 0.000000e+000 -0.000000e+000
    outer loop
      vertex   1.502759e+000 -2.857500e+000 0.000000e+000
      vertex   1.502759e+000 -1.746250e+000 0.000000e+000
      vertex   1.502759e+000 -2.857500e+000 2.540000e+000
    endloop
  endfacet
  facet normal 1.000000e+000 -0.000000e+000 -0.000000e+000
    outer loop
      vertex   1.502759e+000 -2.857500e+000 2.540000e+000
      vertex   1.502759e+000 -1.746250e+000 0.000000e+000
      vertex   1.502759e+000 -1.746250e+000 2.540000e+000
    endloop
  endfacet
  facet normal -9.973634e-001 -7.256935e-002 0.000000e+000
    outer loop
      vertex   1.098439e-001 -6.447181e+000 0.000000e+000
      vertex   1.098439e-001 -6.447181e+000 2.540000e+000
      vertex   4.501866e-002 -5.556250e+000 0.000000e+000
    endloop
  endfacet
  facet normal -9.973634e-001 -7.256935e-002 0.000000e+000
    outer loop
      vertex   4.501866e-002 -5.556250e+000 0.000000e+000
      vertex   1.098439e-001 -6.447181e+000 2.540000e+000
      vertex   4.501866e-002 -5.556250e+000 2.540000e+000
    endloop
  endfacet
  facet normal -4.163054e-002 -9.991331e-001 0.000000e+000
    outer loop
      vertex   1.098439e-001 -6.447181e+000 0.000000e+000
      vertex   1.587500e+000 -6.508750e+000 0.000000e+000
      vertex   1.098439e-001 -6.447181e+000 2.540000e+000
    endloop
  endfacet
  facet normal -4.163054e-002 -9.991331e-001 -3.493734e-016
    outer loop
      vertex   1.098439e-001 -6.447181e+000 2.540000e+000
      vertex   1.587500e+000 -6.508750e+000 0.000000e+000
      vertex   1.587500e+000 -6.508750e+000 2.540000e+000
    endloop
  endfacet
  facet normal -0.000000e+000 0.000000e+000 1.000000e+000
    outer loop
      vertex   4.501866e-002 -5.556250e+000 2.540000e+000
      vertex   1.098439e-001 -6.447181e+000 2.540000e+000
      vertex   1.746250e+000 -5.556250e+000 2.540000e+000
    endloop
  endfacet
  facet normal 0.000000e+000 0.000000e+000 1.000000e+000
    outer loop
      vertex   1.746250e+000 -5.556250e+000 2.540000e+000
      vertex   1.098439e-001 -6.447181e+000 2.540000e+000
      vertex   1.587500e+000 -6.508750e+000 2.540000e+000
    endloop
  endfacet
  facet normal -0.000000e+000 1.000000e+000 0.000000e+000
    outer loop
      vertex   4.501866e-002 -5.556250e+000 2.540000e+000
      vertex   1.746250e+000 -5.556250e+000 2.540000e+000
      vertex   4.501866e-002 -5.556250e+000 0.000000e+000
    endloop
  endfacet
  facet normal -0.000000e+000 1.000000e+000 0.000000e+000
    outer loop
      vertex   4.501866e-002 -5.556250e+000 0.000000e+000
      vertex   1.746250e+000 -5.556250e+000 2.540000e+000
      vertex   1.746250e+000 -5.556250e+000 0.000000e+000
    endloop
  endfacet
  facet normal 0.000000e+000 -0.000000e+000 -1.000000e+000
    outer loop
      vertex   4.501866e-002 -5.556250e+000 0.000000e+000
      vertex   1.746250e+000 -5.556250e+000 0.000000e+000
      vertex   1.098439e-001 -6.447181e+000 0.000000e+000
    endloop
  endfacet
  facet normal 0.000000e+000 -0.000000e+000 -1.000000e+000
    outer loop
      vertex   1.098439e-001 -6.447181e+000 0.000000e+000
      vertex   1.746250e+000 -5.556250e+000 0.000000e+000
      vertex   1.587500e+000 -6.508750e+000 0.000000e+000
    endloop
  endfacet
  facet normal 9.863939e-001 -1.643990e-001 -5.658117e-017
    outer loop
      vertex   1.587500e+000 -6.508750e+000 0.000000e+000
      vertex   1.746250e+000 -5.556250e+000 0.000000e+000
      vertex   1.587500e+000 -6.508750e+000 2.540000e+000
    endloop
  endfacet
  facet normal 9.863939e-001 -1.643990e-001 0.000000e+000
    outer loop
      vertex   1.587500e+000 -6.508750e+000 2.540000e+000
      vertex   1.746250e+000 -5.556250e+000 0.000000e+000
      vertex   1.746250e+000 -5.556250e+000 2.540000e+000
    endloop
  endfacet
  facet normal 9.973634e-001 7.256935e-002 -0.000000e+000
    outer loop
      vertex   -4.516674e-001 1.270000e+000 0.000000e+000
      vertex   -4.516674e-001 1.270000e+000 2.540000e+000
      vertex   -4.170149e-001 7.937500e-001 0.000000e+000
    endloop
  endfacet
  facet normal 9.973634e-001 7.256935e-002 0.000000e+000
    outer loop
      vertex   -4.170149e-001 7.937500e-001 0.000000e+000
      vertex   -4.516674e-001 1.270000e+000 2.540000e+000
      vertex   -4.170149e-001 7.937500e-001 2.540000e+000
    endloop
  endfacet
  facet normal 0.000000e+000 1.000000e+000 -0.000000e+000
    outer loop
      vertex   -4.516674e-001 1.270000e+000 0.000000e+000
      vertex   -1.746250e+000 1.270000e+000 0.000000e+000
      vertex   -4.516674e-001 1.270000e+000 2.540000e+000
    endloop
  endfacet
  facet normal 0.000000e+000 1.000000e+000 -0.000000e+000
    outer loop
      vertex   -4.516674e-001 1.270000e+000 2.540000e+000
      vertex   -1.746250e+000 1.270000e+000 0.000000e+000
      vertex   -1.746250e+000 1.270000e+000 2.540000e+000
    endloop
  endfacet
  facet normal -0.000000e+000 -0.000000e+000 -1.000000e+000
    outer loop
      vertex   -2.322015e-001 -1.746250e+000 0.000000e+000
      vertex   -1.513456e-001 -2.857500e+000 0.000000e+000
      vertex   -1.270000e+000 -1.746250e+000 0.000000e+000
    endloop
  endfacet
  facet normal -0.000000e+000 -0.000000e+000 -1.000000e+000
    outer loop
      vertex   -1.270000e+000 -1.746250e+000 0.000000e+000
      vertex   -1.513456e-001 -2.857500e+000 0.000000e+000
      vertex   -1.746250e+000 -2.857500e+000 0.000000e+000
    endloop
  endfacet
  facet normal -0.000000e+000 -0.000000e+000 -1.000000e+000
    outer loop
      vertex   -1.746250e+000 1.270000e+000 0.000000e+000
      vertex   -1.746250e+000 -2.857500e+000 0.000000e+000
      vertex   -2.381250e+000 1.111250e+000 0.000000e+000
    endloop
  endfacet
  facet normal 0.000000e+000 -0.000000e+000 -1.000000e+000
    outer loop
      vertex   -1.746250e+000 1.270000e+000 0.000000e+000
      vertex   -1.270000e+000 -1.746250e+000 0.000000e+000
      vertex   -1.746250e+000 -2.857500e+000 0.000000e+000
    endloop
  endfacet
  facet normal 0.000000e+000 0.000000e+000 -1.000000e+000
    outer loop
      vertex   -1.746250e+000 1.270000e+000 0.000000e+000
      vertex   -1.270000e+000 7.937500e-001 0.000000e+000
      vertex   -1.270000e+000 -1.746250e+000 0.000000e+000
    endloop
  endfacet
  facet normal 0.000000e+000 -0.000000e+000 -1.000000e+000
    outer loop
      vertex   -1.746250e+000 1.270000e+000 0.000000e+000
      vertex   -4.516674e-001 1.270000e+000 0.000000e+000
      vertex   -1.270000e+000 7.937500e-001 0.000000e+000
    endloop
  endfacet
  facet normal 0.000000e+000 0.000000e+000 -1.000000e+000
    outer loop
      vertex   -1.270000e+000 7.937500e-001 0.000000e+000
      vertex   -4.516674e-001 1.270000e+000 0.000000e+000
      vertex   -4.170149e-001 7.937500e-001 0.000000e+000
    endloop
  endfacet
  facet normal 0.000000e+000 -0.000000e+000 -1.000000e+000
    outer loop
      vertex   -2.381250e+000 1.111250e+000 0.000000e+000
      vertex   -1.746250e+000 -2.857500e+000 0.000000e+000
      vertex   -2.222500e+000 -6.350000e+000 0.000000e+000
    endloop
  endfacet
  facet normal 0.000000e+000 0.000000e+000 -1.000000e+000
    outer loop
      vertex   -2.222500e+000 -6.350000e+000 0.000000e+000
      vertex   -1.746250e+000 -2.857500e+000 0.000000e+000
      vertex   -1.746250e+000 -5.556250e+000 0.000000e+000
    endloop
  endfacet
  facet normal 0.000000e+000 0.000000e+000 -1.000000e+000
    outer loop
      vertex   1.098439e-001 -6.447181e+000 0.000000e+000
      vertex   -1.746250e+000 -5.556250e+000 0.000000e+000
      vertex   4.501866e-002 -5.556250e+000 0.000000e+000
    endloop
  endfacet
  facet normal 0.000000e+000 0.000000e+000 -1.000000e+000
    outer loop
      vertex   1.098439e-001 -6.447181e+000 0.000000e+000
      vertex   -2.222500e+000 -6.350000e+000 0.000000e+000
      vertex   -1.746250e+000 -5.556250e+000 0.000000e+000
    endloop
  endfacet
  facet normal -0.000000e+000 -1.000000e+000 -0.000000e+000
    outer loop
      vertex   -4.170149e-001 7.937500e-001 2.540000e+000
      vertex   -1.270000e+000 7.937500e-001 2.540000e+000
      vertex   -4.170149e-001 7.937500e-001 0.000000e+000
    endloop
  endfacet
  facet normal -0.000000e+000 -1.000000e+000 -0.000000e+000
    outer loop
      vertex   -4.170149e-001 7.937500e-001 0.000000e+000
      vertex   -1.270000e+000 7.937500e-001 2.540000e+000
      vertex   -1.270000e+000 7.937500e-001 0.000000e+000
    endloop
  endfacet
  facet normal 0.000000e+000 0.000000e+000 1.000000e+000
    outer loop
      vertex   -2.322015e-001 -1.746250e+000 2.540000e+000
      vertex   -1.270000e+000 -1.746250e+000 2.540000e+000
      vertex   -1.513456e-001 -2.857500e+000 2.540000e+000
    endloop
  endfacet
  facet normal 0.000000e+000 0.000000e+000 1.000000e+000
    outer loop
      vertex   -1.513456e-001 -2.857500e+000 2.540000e+000
      vertex   -1.270000e+000 -1.746250e+000 2.540000e+000
      vertex   -1.746250e+000 -2.857500e+000 2.540000e+000
    endloop
  endfacet
  facet normal 0.000000e+000 -0.000000e+000 1.000000e+000
    outer loop
      vertex   -1.746250e+000 -2.857500e+000 2.540000e+000
      vertex   -1.270000e+000 -1.746250e+000 2.540000e+000
      vertex   -1.746250e+000 1.270000e+000 2.540000e+000
    endloop
  endfacet
  facet normal -0.000000e+000 0.000000e+000 1.000000e+000
    outer loop
      vertex   -2.381250e+000 1.111250e+000 2.540000e+000
      vertex   -1.746250e+000 -2.857500e+000 2.540000e+000
      vertex   -1.746250e+000 1.270000e+000 2.540000e+000
    endloop
  endfacet
  facet normal -0.000000e+000 0.000000e+000 1.000000e+000
    outer loop
      vertex   -2.381250e+000 1.111250e+000 2.540000e+000
      vertex   -2.222500e+000 -6.350000e+000 2.540000e+000
      vertex   -1.746250e+000 -2.857500e+000 2.540000e+000
    endloop
  endfacet
  facet normal -0.000000e+000 0.000000e+000 1.000000e+000
    outer loop
      vertex   -1.746250e+000 -2.857500e+000 2.540000e+000
      vertex   -2.222500e+000 -6.350000e+000 2.540000e+000
      vertex   -1.746250e+000 -5.556250e+000 2.540000e+000
    endloop
  endfacet
  facet normal 0.000000e+000 0.000000e+000 1.000000e+000
    outer loop
      vertex   -1.746250e+000 -5.556250e+000 2.540000e+000
      vertex   -2.222500e+000 -6.350000e+000 2.540000e+000
      vertex   1.098439e-001 -6.447181e+000 2.540000e+000
    endloop
  endfacet
  facet normal 0.000000e+000 0.000000e+000 1.000000e+000
    outer loop
      vertex   4.501866e-002 -5.556250e+000 2.540000e+000
      vertex   -1.746250e+000 -5.556250e+000 2.540000e+000
      vertex   1.098439e-001 -6.447181e+000 2.540000e+000
    endloop
  endfacet
  facet normal 0.000000e+000 -0.000000e+000 1.000000e+000
    outer loop
      vertex   -1.270000e+000 -1.746250e+000 2.540000e+000
      vertex   -1.270000e+000 7.937500e-001 2.540000e+000
      vertex   -1.746250e+000 1.270000e+000 2.540000e+000
    endloop
  endfacet
  facet normal -0.000000e+000 0.000000e+000 1.000000e+000
    outer loop
      vertex   -1.746250e+000 1.270000e+000 2.540000e+000
      vertex   -1.270000e+000 7.937500e-001 2.540000e+000
      vertex   -4.516674e-001 1.270000e+000 2.540000e+000
    endloop
  endfacet
  facet normal -0.000000e+000 0.000000e+000 1.000000e+000
    outer loop
      vertex   -4.516674e-001 1.270000e+000 2.540000e+000
      vertex   -1.270000e+000 7.937500e-001 2.540000e+000
      vertex   -4.170149e-001 7.937500e-001 2.540000e+000
    endloop
  endfacet
  facet normal -2.425356e-001 9.701425e-001 0.000000e+000
    outer loop
      vertex   -1.746250e+000 1.270000e+000 0.000000e+000
      vertex   -2.381250e+000 1.111250e+000 0.000000e+000
      vertex   -1.746250e+000 1.270000e+000 2.540000e+000
    endloop
  endfacet
  facet normal -2.425356e-001 9.701425e-001 0.000000e+000
    outer loop
      vertex   -1.746250e+000 1.270000e+000 2.540000e+000
      vertex   -2.381250e+000 1.111250e+000 0.000000e+000
      vertex   -2.381250e+000 1.111250e+000 2.540000e+000
    endloop
  endfacet
  facet normal 9.973634e-001 7.256935e-002 0.000000e+000
    outer loop
      vertex   -1.513456e-001 -2.857500e+000 2.540000e+000
      vertex   -1.513456e-001 -2.857500e+000 0.000000e+000
      vertex   -2.322015e-001 -1.746250e+000 2.540000e+000
    endloop
  endfacet
  facet normal 9.973634e-001 7.256935e-002 0.000000e+000
    outer loop
      vertex   -2.322015e-001 -1.746250e+000 2.540000e+000
      vertex   -1.513456e-001 -2.857500e+000 0.000000e+000
      vertex   -2.322015e-001 -1.746250e+000 0.000000e+000
    endloop
  endfacet
  facet normal -2.784425e-016 -1.000000e+000 0.000000e+000
    outer loop
      vertex   -1.513456e-001 -2.857500e+000 2.540000e+000
      vertex   -1.746250e+000 -2.857500e+000 2.540000e+000
      vertex   -1.513456e-001 -2.857500e+000 0.000000e+000
    endloop
  endfacet
  facet normal 0.000000e+000 -1.000000e+000 1.748383e-016
    outer loop
      vertex   -1.513456e-001 -2.857500e+000 0.000000e+000
      vertex   -1.746250e+000 -2.857500e+000 2.540000e+000
      vertex   -1.746250e+000 -2.857500e+000 0.000000e+000
    endloop
  endfacet
  facet normal 1.000000e+000 0.000000e+000 -0.000000e+000
    outer loop
      vertex   -1.746250e+000 -5.556250e+000 0.000000e+000
      vertex   -1.746250e+000 -2.857500e+000 0.000000e+000
      vertex   -1.746250e+000 -5.556250e+000 2.540000e+000
    endloop
  endfacet
  facet normal 1.000000e+000 -0.000000e+000 0.000000e+000
    outer loop
      vertex   -1.746250e+000 -5.556250e+000 2.540000e+000
      vertex   -1.746250e+000 -2.857500e+000 0.000000e+000
      vertex   -1.746250e+000 -2.857500e+000 2.540000e+000
    endloop
  endfacet
  facet normal 0.000000e+000 1.000000e+000 -0.000000e+000
    outer loop
      vertex   4.501866e-002 -5.556250e+000 0.000000e+000
      vertex   -1.746250e+000 -5.556250e+000 0.000000e+000
      vertex   4.501866e-002 -5.556250e+000 2.540000e+000
    endloop
  endfacet
  facet normal 0.000000e+000 1.000000e+000 -0.000000e+000
    outer loop
      vertex   4.501866e-002 -5.556250e+000 2.540000e+000
      vertex   -1.746250e+000 -5.556250e+000 0.000000e+000
      vertex   -1.746250e+000 -5.556250e+000 2.540000e+000
    endloop
  endfacet
  facet normal 9.973634e-001 7.256935e-002 0.000000e+000
    outer loop
      vertex   1.098439e-001 -6.447181e+000 2.540000e+000
      vertex   1.098439e-001 -6.447181e+000 0.000000e+000
      vertex   4.501866e-002 -5.556250e+000 2.540000e+000
    endloop
  endfacet
  facet normal 9.973634e-001 7.256935e-002 0.000000e+000
    outer loop
      vertex   4.501866e-002 -5.556250e+000 2.540000e+000
      vertex   1.098439e-001 -6.447181e+000 0.000000e+000
      vertex   4.501866e-002 -5.556250e+000 0.000000e+000
    endloop
  endfacet
  facet normal -4.163054e-002 -9.991331e-001 0.000000e+000
    outer loop
      vertex   1.098439e-001 -6.447181e+000 2.540000e+000
      vertex   -2.222500e+000 -6.350000e+000 2.540000e+000
      vertex   1.098439e-001 -6.447181e+000 0.000000e+000
    endloop
  endfacet
  facet normal -4.163054e-002 -9.991331e-001 -3.493734e-016
    outer loop
      vertex   1.098439e-001 -6.447181e+000 0.000000e+000
      vertex   -2.222500e+000 -6.350000e+000 2.540000e+000
      vertex   -2.222500e+000 -6.350000e+000 0.000000e+000
    endloop
  endfacet
  facet normal -9.997737e-001 -2.127178e-002 0.000000e+000
    outer loop
      vertex   -2.381250e+000 1.111250e+000 0.000000e+000
      vertex   -2.222500e+000 -6.350000e+000 0.000000e+000
      vertex   -2.381250e+000 1.111250e+000 2.540000e+000
    endloop
  endfacet
  facet normal -9.997737e-001 -2.127178e-002 -7.438243e-018
    outer loop
      vertex   -2.381250e+000 1.111250e+000 2.540000e+000
      vertex   -2.222500e+000 -6.350000e+000 0.000000e+000
      vertex   -2.222500e+000 -6.350000e+000 2.540000e+000
    endloop
  endfacet
  facet normal 1.000000e+000 0.000000e+000 -0.000000e+000
    outer loop
      vertex   -1.270000e+000 -1.746250e+000 0.000000e+000
      vertex   -1.270000e+000 7.937500e-001 0.000000e+000
      vertex   -1.270000e+000 -1.746250e+000 2.540000e+000
    endloop
  endfacet
  facet normal 1.000000e+000 -0.000000e+000 0.000000e+000
    outer loop
      vertex   -1.270000e+000 -1.746250e+000 2.540000e+000
      vertex   -1.270000e+000 7.937500e-001 0.000000e+000
      vertex   -1.270000e+000 7.937500e-001 2.540000e+000
    endloop
  endfacet
  facet normal 0.000000e+000 1.000000e+000 -0.000000e+000
    outer loop
      vertex   -2.322015e-001 -1.746250e+000 0.000000e+000
      vertex   -1.270000e+000 -1.746250e+000 0.000000e+000
      vertex   -2.322015e-001 -1.746250e+000 2.540000e+000
    endloop
  endfacet
  facet normal -2.139573e-016 1.000000e+000 8.741914e-017
    outer loop
      vertex   -2.322015e-001 -1.746250e+000 2.540000e+000
      vertex   -1.270000e+000 -1.746250e+000 0.000000e+000
      vertex   -1.270000e+000 -1.746250e+000 2.540000e+000
    endloop
  endfacet
endsolid
